<?xml version="1.0" encoding="UTF-8"?>
<svg xmlns="http://www.w3.org/2000/svg" viewBox="0 0 1900 930" width="100%" style="display:block;background:#fff"><defs><marker id="arrow-3d4356" viewBox="0 0 10 10" refX="8" refY="5" markerWidth="7" markerHeight="7" orient="auto-start-reverse">
      <path d="M0 0 L10 5 L0 10 z" fill="#3d4356"/></marker><marker id="arrow-0d5fb8" viewBox="0 0 10 10" refX="8" refY="5" markerWidth="7" markerHeight="7" orient="auto-start-reverse">
      <path d="M0 0 L10 5 L0 10 z" fill="#0d5fb8"/></marker><marker id="arrow-4c2a9c" viewBox="0 0 10 10" refX="8" refY="5" markerWidth="7" markerHeight="7" orient="auto-start-reverse">
      <path d="M0 0 L10 5 L0 10 z" fill="#4c2a9c"/></marker><marker id="arrow-15683f" viewBox="0 0 10 10" refX="8" refY="5" markerWidth="7" markerHeight="7" orient="auto-start-reverse">
      <path d="M0 0 L10 5 L0 10 z" fill="#15683f"/></marker><marker id="arrow-a52020" viewBox="0 0 10 10" refX="8" refY="5" markerWidth="7" markerHeight="7" orient="auto-start-reverse">
      <path d="M0 0 L10 5 L0 10 z" fill="#a52020"/></marker><marker id="arrow-6b7285" viewBox="0 0 10 10" refX="8" refY="5" markerWidth="7" markerHeight="7" orient="auto-start-reverse">
      <path d="M0 0 L10 5 L0 10 z" fill="#6b7285"/></marker><marker id="arrow-7c5ad4" viewBox="0 0 10 10" refX="8" refY="5" markerWidth="7" markerHeight="7" orient="auto-start-reverse">
      <path d="M0 0 L10 5 L0 10 z" fill="#7c5ad4"/></marker><marker id="arrow-8a5205" viewBox="0 0 10 10" refX="8" refY="5" markerWidth="7" markerHeight="7" orient="auto-start-reverse">
      <path d="M0 0 L10 5 L0 10 z" fill="#8a5205"/></marker></defs><rect x="40" y="50" width="340" height="780" rx="12" fill="#f3f1fa" stroke="#c9bdec" stroke-width="1.4" stroke-dasharray="6 4"/><g><circle cx="57" cy="70" r="9" fill="#4c2a9c"/><text x="57" y="74" font-family="'Inter','Segoe UI',sans-serif" font-size="10" font-weight="800" fill="#fff" text-anchor="middle">A</text></g><text x="73" y="74" font-family="'Inter','Segoe UI',sans-serif" font-size="10.5" font-weight="800" fill="#4c2a9c" text-anchor="start">CUSTOMER SITE — ON-PREM</text><text x="56" y="89" font-family="'Inter','Segoe UI',sans-serif" font-size="8" font-weight="500" fill="#6b7285" text-anchor="start">No inbound rule, port-forward, or VLAN ever required</text>
<g transform="translate(60,102) scale(1.05)">
  <rect x="4" y="4" width="10" height="10" rx="1.2" fill="#fff" stroke="#6b7285" stroke-width="1.3"/>
  <g stroke="#6b7285" stroke-width="1.1">
    <path d="M6 1v3M9 1v3M12 1v3M6 16v3M9 16v3M12 16v3M1 6h3M1 9h3M1 12h3M16 6h3M16 9h3M16 12h3"/>
  </g>
</g><text x="96" y="116" font-family="'Inter','Segoe UI',sans-serif" font-size="9.3" font-weight="700" fill="#14161d" text-anchor="start">Field equipment</text><text x="96" y="128" font-family="'Inter','Segoe UI',sans-serif" font-size="7.4" fill="#6b7285">Pumps · blowers · chemistry · PLCs / RTUs</text><line x1="72" y1="142" x2="72" y2="162" stroke="#6b7285" stroke-width="1.3" marker-end="url(#arrow-6b7285)"/>
<g transform="translate(60,168) scale(1.7)">
  <rect x="1" y="4" width="18" height="13" rx="2" fill="#f3f1fa" stroke="#4c2a9c" stroke-width="1.4"/>
  <circle cx="6" cy="10.5" r="1.4" fill="#4c2a9c"/>
  <path d="M9.5 7.5a4.2 4.2 0 0 1 0 6" fill="none" stroke="#4c2a9c" stroke-width="1.3" stroke-linecap="round"/>
  <path d="M12 5.5a7 7 0 0 1 0 11" fill="none" stroke="#4c2a9c" stroke-width="1.3" stroke-linecap="round"/>
  <rect x="4" y="17" width="4" height="2.4" fill="#4c2a9c"/>
  <rect x="12" y="17" width="4" height="2.4" fill="#4c2a9c"/>
</g><text x="136" y="188" font-family="'Inter','Segoe UI',sans-serif" font-size="11" font-weight="700" fill="#14161d" text-anchor="start">PeakLogic Hub</text><text x="60" y="208" font-family="'Inter','Segoe UI',sans-serif" font-size="7.6" fill="#6b7285">Acquires Modbus TCP / OPC-UA / EtherNet-IP. Evaluates threshold alarms</text><text x="60" y="220" font-family="'Inter','Segoe UI',sans-serif" font-size="7.6" fill="#6b7285">locally. Store-and-forward on link loss.</text><rect x="60" y="248" width="300" height="55" rx="8" fill="#fff" stroke="#d6dae4" stroke-width="1.4"/><text x="72" y="268" font-family="'Inter','Segoe UI',sans-serif" font-size="9.2" font-weight="700" fill="#14161d" text-anchor="start">Desired-state reconciler</text><text x="72" y="281" font-family="'Inter','Segoe UI',sans-serif" font-size="7.4" fill="#6b7285">Firmware · drivers · agent · config · security bundle</text><rect x="60" y="315" width="300" height="110" rx="8" fill="#fff" stroke="#d6dae4" stroke-width="1.4"/>
<g transform="translate(72,326) scale(1.1)">
  <rect x="0.5" y="1" width="19" height="13" rx="1.6" fill="#f4f1fb" stroke="#7c5ad4" stroke-width="1.3"/>
  <path d="M2.5 3.5h15" stroke="#7c5ad4" stroke-width="1" opacity=".5"/>
  <rect x="7" y="14.6" width="6" height="1.6" fill="#7c5ad4"/>
  <rect x="4.5" y="16.4" width="11" height="1.4" rx="0.7" fill="#7c5ad4"/>
</g><text x="72" y="358" font-family="'Inter','Segoe UI',sans-serif" font-size="9.4" font-weight="700" fill="#14161d" text-anchor="start">PeakView360 (LAN-served)</text><text x="72" y="371" font-family="'Inter','Segoe UI',sans-serif" font-size="7.4" fill="#6b7285">Facility View, Historian, alarm panel — served over the local</text><text x="72" y="383" font-family="'Inter','Segoe UI',sans-serif" font-size="7.4" fill="#6b7285">network. Keeps working with the internet down; syncs when it is</text><text x="72" y="395" font-family="'Inter','Segoe UI',sans-serif" font-size="7.4" fill="#6b7285">back.</text><rect x="60" y="438" width="300" height="60" rx="8" fill="#fff" stroke="#d6dae4" stroke-width="1.4"/>
<g transform="translate(72,448) scale(1)">
  <rect x="1.5" y="8" width="13" height="10" rx="1.6" fill="#fdf1f1" stroke="#a52020" stroke-width="1.3"/>
  <path d="M4 8V5.5a4 4 0 0 1 8 0V8" fill="none" stroke="#a52020" stroke-width="1.4"/>
  <circle cx="8" cy="12.6" r="1.3" fill="#a52020"/>
  <rect x="7.35" y="13.4" width="1.3" height="2.6" fill="#a52020"/>
</g><text x="95" y="460" font-family="'Inter','Segoe UI',sans-serif" font-size="9.2" font-weight="700" fill="#14161d" text-anchor="start">Per-device X.509 identity</text><text x="72" y="473" font-family="'Inter','Segoe UI',sans-serif" font-size="7.4" fill="#6b7285">Mutual TLS. A revoked cert cannot reconnect.</text><text x="56" y="804" font-family="'Inter','Segoe UI',sans-serif" font-size="7.6" fill="#a52020">Read-only by construction — no code path here issues a device command.</text><rect x="400" y="40" width="1100" height="790" rx="14" fill="#eaf2fc" stroke="#bcd6f2" stroke-width="1.4"/>
<g transform="translate(416,52) scale(1.3)">
  <path d="M6 20c-3.3 0-6-2.6-6-5.8 0-2.7 1.9-5 4.5-5.6C5.2 4.7 8.7 2 12.8 2c4.6 0 8.4 3.4 9 7.8 3 .6 5.2 3.2 5.2 6.3 0 3.5-2.9 6.3-6.5 6.3H6z"
    fill="#dcebfb" stroke="#0d5fb8" stroke-width="1.4"/>
</g><g><circle cx="446" cy="64" r="9" fill="#0d5fb8"/><text x="446" y="68" font-family="'Inter','Segoe UI',sans-serif" font-size="10" font-weight="800" fill="#fff" text-anchor="middle">B</text></g><text x="462" y="68" font-family="'Inter','Segoe UI',sans-serif" font-size="11" font-weight="800" fill="#0d5fb8" text-anchor="start">MICROSOFT AZURE — PeakLogicSystems (multi-tenant SaaS)</text><rect x="430" y="85" width="160" height="95" rx="8" fill="#fff" stroke="#0d5fb8" stroke-width="1.4"/><g><circle cx="445" cy="103" r="9" fill="#0d5fb8"/><text x="445" y="107" font-family="'Inter','Segoe UI',sans-serif" font-size="10" font-weight="800" fill="#fff" text-anchor="middle">C</text></g>
<g transform="translate(462,95) scale(0.95)">
  <path d="M6 20c-3.3 0-6-2.6-6-5.8 0-2.7 1.9-5 4.5-5.6C5.2 4.7 8.7 2 12.8 2c4.6 0 8.4 3.4 9 7.8 3 .6 5.2 3.2 5.2 6.3 0 3.5-2.9 6.3-6.5 6.3H6z"
    fill="#eaf2fc" stroke="#0d5fb8" stroke-width="1.4"/>
</g><text x="496" y="107" font-family="'Inter','Segoe UI',sans-serif" font-size="10" font-weight="700" fill="#14161d" text-anchor="start">IoT Hub + DPS</text><text x="442" y="125" font-family="'Inter','Segoe UI',sans-serif" font-size="7.6" fill="#6b7285">Device provisioning: per-device</text><text x="442" y="137" font-family="'Inter','Segoe UI',sans-serif" font-size="7.6" fill="#6b7285">enrollment, group ZTP.</text><path d="M 380 185 L 405 185 L 405 145 L 430 145" fill="none" stroke="#0d5fb8" stroke-width="1.6" marker-end="url(#arrow-0d5fb8)"/><g>
    <rect x="380.2" y="155" width="49.6" height="13" fill="#fff" opacity=".92"/>
    <text x="405" y="165" font-family="'SF Mono','Cascadia Mono',Consolas,monospace" font-size="8.6" fill="#0d5fb8" text-anchor="middle" font-weight="600">MQTT/TLS</text>
  </g><rect x="650" y="85" width="160" height="95" rx="8" fill="#fff" stroke="#0d5fb8" stroke-width="1.4"/><g><circle cx="665" cy="103" r="9" fill="#0d5fb8"/><text x="665" y="107" font-family="'Inter','Segoe UI',sans-serif" font-size="10" font-weight="800" fill="#fff" text-anchor="middle">D</text></g>
<g transform="translate(682,95) scale(0.95)">
  <rect x="1" y="4" width="18" height="13" rx="2" fill="#eaf2fc" stroke="#0d5fb8" stroke-width="1.4"/>
  <circle cx="6" cy="10.5" r="1.4" fill="#0d5fb8"/>
  <path d="M9.5 7.5a4.2 4.2 0 0 1 0 6" fill="none" stroke="#0d5fb8" stroke-width="1.3" stroke-linecap="round"/>
  <path d="M12 5.5a7 7 0 0 1 0 11" fill="none" stroke="#0d5fb8" stroke-width="1.3" stroke-linecap="round"/>
  <rect x="4" y="17" width="4" height="2.4" fill="#0d5fb8"/>
  <rect x="12" y="17" width="4" height="2.4" fill="#0d5fb8"/>
</g><text x="716" y="107" font-family="'Inter','Segoe UI',sans-serif" font-size="10" font-weight="700" fill="#14161d" text-anchor="start">API Management</text><text x="662" y="125" font-family="'Inter','Segoe UI',sans-serif" font-size="7.6" fill="#6b7285">Rate limiting, JWT validation</text><text x="662" y="137" font-family="'Inter','Segoe UI',sans-serif" font-size="7.6" fill="#6b7285">at the edge, one façade per</text><text x="662" y="149" font-family="'Inter','Segoe UI',sans-serif" font-size="7.6" fill="#6b7285">portal.</text><rect x="430" y="240" width="160" height="95" rx="8" fill="#fff" stroke="#0d5fb8" stroke-width="1.4"/>
<g transform="translate(442,250) scale(0.85)">
  <rect x="1" y="1" width="16" height="16" rx="3" fill="#eaf2fc" stroke="#0d5fb8" stroke-width="1.4"/>
  <path d="M6 5.5 L11.5 9 L6 12.5" fill="none" stroke="#0d5fb8" stroke-width="1.5" stroke-linecap="round" stroke-linejoin="round"/>
</g><text x="474" y="262" font-family="'Inter','Segoe UI',sans-serif" font-size="10" font-weight="700" fill="#14161d" text-anchor="start">Ingest Functions</text><text x="442" y="278" font-family="'Inter','Segoe UI',sans-serif" font-size="7.6" fill="#6b7285">Dedup · poison-message DLQ ·</text><text x="442" y="290" font-family="'Inter','Segoe UI',sans-serif" font-size="7.6" fill="#6b7285">normalize · Policy Engine ·</text><text x="442" y="302" font-family="'Inter','Segoe UI',sans-serif" font-size="7.6" fill="#6b7285">anomaly scoring.</text><path d="M 510 180 L 510 240" fill="none" stroke="#0d5fb8" stroke-width="1.6" marker-end="url(#arrow-0d5fb8)"/><rect x="650" y="240" width="160" height="95" rx="8" fill="#fff" stroke="#0d5fb8" stroke-width="1.4"/>
<g transform="translate(662,250) scale(0.85)">
  <rect x="1" y="1" width="16" height="16" rx="3" fill="#eaf2fc" stroke="#0d5fb8" stroke-width="1.4"/>
  <path d="M6 5.5 L11.5 9 L6 12.5" fill="none" stroke="#0d5fb8" stroke-width="1.5" stroke-linecap="round" stroke-linejoin="round"/>
</g><text x="694" y="262" font-family="'Inter','Segoe UI',sans-serif" font-size="10" font-weight="700" fill="#14161d" text-anchor="start">API Functions</text><text x="662" y="278" font-family="'Inter','Segoe UI',sans-serif" font-size="7.6" fill="#6b7285">withTenant() /</text><text x="662" y="290" font-family="'Inter','Segoe UI',sans-serif" font-size="7.6" fill="#6b7285">withChannelPartner() /</text><text x="662" y="302" font-family="'Inter','Segoe UI',sans-serif" font-size="7.6" fill="#6b7285">withStaffSession() on every</text><text x="662" y="314" font-family="'Inter','Segoe UI',sans-serif" font-size="7.6" fill="#6b7285">route.</text><path d="M 730 180 L 730 240" fill="none" stroke="#0d5fb8" stroke-width="1.6" marker-end="url(#arrow-0d5fb8)"/><rect x="430" y="375" width="380" height="130" rx="12" fill="#fff" stroke="#d6dae4" stroke-width="1.4"/><g><circle cx="445" cy="389" r="9" fill="#3d4356"/><text x="445" y="393" font-family="'Inter','Segoe UI',sans-serif" font-size="10" font-weight="800" fill="#fff" text-anchor="middle">E</text></g><text x="461" y="395" font-family="'Inter','Segoe UI',sans-serif" font-size="9.3" font-weight="800" fill="#3d4356" text-anchor="start">DATA LAYER — private endpoint</text>
<g transform="translate(448,407) scale(1.5)">
  <path d="M0 3.5C0 1.6 3.6 0 8 0s8 1.6 8 3.5v13C16 18.4 12.4 20 8 20S0 18.4 0 16.5v-13z" fill="#ffffff" stroke="#14161d" stroke-width="1.3"/>
  <ellipse cx="8" cy="3.5" rx="8" ry="3.5" fill="#ffffff" stroke="#14161d" stroke-width="1.3"/>
</g><text x="508" y="423" font-family="'Inter','Segoe UI',sans-serif" font-size="9.6" font-weight="700" fill="#14161d" text-anchor="start">PostgreSQL Flexible Server</text><text x="508" y="435" font-family="'Inter','Segoe UI',sans-serif" font-size="7.4" fill="#6b7285">PostGIS · row-level security FORCED on every tenant table.</text>
<g transform="translate(448,457) scale(0.9)">
  <rect x="1.5" y="8" width="13" height="10" rx="1.6" fill="#fdf1f1" stroke="#a52020" stroke-width="1.3"/>
  <path d="M4 8V5.5a4 4 0 0 1 8 0V8" fill="none" stroke="#a52020" stroke-width="1.4"/>
  <circle cx="8" cy="12.6" r="1.3" fill="#a52020"/>
  <rect x="7.35" y="13.4" width="1.3" height="2.6" fill="#a52020"/>
</g><text x="476" y="469" font-family="'SF Mono','Cascadia Mono',Consolas,monospace" font-size="8" font-weight="700" fill="#14161d" text-anchor="start">app.current_tenant_id</text><text x="448" y="481" font-family="'Inter','Segoe UI',sans-serif" font-size="7.2" fill="#a52020">set_config() per request — RLS returns zero rows outside scope, never another</text><text x="448" y="493" font-family="'Inter','Segoe UI',sans-serif" font-size="7.2" fill="#a52020">tenant’s. No public network access.</text><path d="M 510 335 L 510 375" fill="none" stroke="#0d5fb8" stroke-width="1.6" marker-end="url(#arrow-0d5fb8)"/><g>
    <rect x="460.4" y="345" width="99.2" height="13" fill="#fff" opacity=".92"/>
    <text x="510" y="355" font-family="'SF Mono','Cascadia Mono',Consolas,monospace" font-size="8.6" fill="#0d5fb8" text-anchor="middle" font-weight="600">telemetry writes</text>
  </g><path d="M 730 335 L 730 375" fill="none" stroke="#0d5fb8" stroke-width="1.6" marker-end="url(#arrow-0d5fb8)"/><g>
    <rect x="671.1" y="345" width="117.8" height="13" fill="#fff" opacity=".92"/>
    <text x="730" y="355" font-family="'SF Mono','Cascadia Mono',Consolas,monospace" font-size="8.6" fill="#0d5fb8" text-anchor="middle" font-weight="600">scoped reads/writes</text>
  </g><rect x="860" y="375" width="180" height="130" rx="12" fill="#fff" stroke="#d6dae4" stroke-width="1.4"/><g><circle cx="875" cy="389" r="9" fill="#3d4356"/><text x="875" y="393" font-family="'Inter','Segoe UI',sans-serif" font-size="10" font-weight="800" fill="#fff" text-anchor="middle">F</text></g><text x="891" y="395" font-family="'Inter','Segoe UI',sans-serif" font-size="9.3" font-weight="800" fill="#3d4356" text-anchor="start">IDENTITY — Entra External ID</text>
<g transform="translate(874,405) scale(1)">
  <circle cx="5.5" cy="10" r="4" fill="#eaf2fc" stroke="#0d5fb8" stroke-width="1.4"/>
  <path d="M9 10h9.5M15.5 10v3M18 10v2" stroke="#0d5fb8" stroke-width="1.4" stroke-linecap="round"/>
</g><text x="906" y="419" font-family="'Inter','Segoe UI',sans-serif" font-size="7.4" fill="#6b7285">Three isolated tenants:</text><text x="906" y="431" font-family="'Inter','Segoe UI',sans-serif" font-size="7.4" fill="#6b7285">customer, partner, staff.</text><text x="906" y="443" font-family="'Inter','Segoe UI',sans-serif" font-size="7.4" fill="#6b7285">JWT carries tenantId + role.</text>
<g transform="translate(874,449) scale(0.9)">
  <rect x="1.5" y="8" width="13" height="10" rx="1.6" fill="#eaf2fc" stroke="#0d5fb8" stroke-width="1.3"/>
  <path d="M4 8V5.5a4 4 0 0 1 8 0V8" fill="none" stroke="#0d5fb8" stroke-width="1.4"/>
  <circle cx="8" cy="12.6" r="1.3" fill="#0d5fb8"/>
  <rect x="7.35" y="13.4" width="1.3" height="2.6" fill="#0d5fb8"/>
</g><text x="902" y="461" font-family="'Inter','Segoe UI',sans-serif" font-size="8.6" font-weight="700" fill="#14161d" text-anchor="start">Key Vault</text><text x="874" y="473" font-family="'Inter','Segoe UI',sans-serif" font-size="7.2" fill="#6b7285">Device certs, secrets, connection</text><text x="874" y="485" font-family="'Inter','Segoe UI',sans-serif" font-size="7.2" fill="#6b7285">strings.</text><path d="M 810 132 L 950 132 L 950 375" fill="none" stroke="#0d5fb8" stroke-width="1.2" stroke-dasharray="3 3" marker-end="url(#arrow-0d5fb8)"/><g>
    <rect x="900.4" y="347" width="99.2" height="13" fill="#fff" opacity=".92"/>
    <text x="950" y="357" font-family="'SF Mono','Cascadia Mono',Consolas,monospace" font-size="8.6" fill="#0d5fb8" text-anchor="middle" font-weight="600">token validation</text>
  </g><rect x="430" y="530" width="380" height="95" rx="10" fill="#f3f1fa" stroke="#c9bdec" stroke-width="1.4"/><g><circle cx="445" cy="544" r="9" fill="#4c2a9c"/><text x="445" y="548" font-family="'Inter','Segoe UI',sans-serif" font-size="10" font-weight="800" fill="#fff" text-anchor="middle">G</text></g>
<g transform="translate(462,542) scale(0.95)">
  <path d="M1 9s3.4-6 9-6 9 6 9 6-3.4 6-9 6-9-6-9-6z" fill="#f4f1fb" stroke="#4c2a9c" stroke-width="1.3"/>
  <circle cx="10" cy="9" r="3" fill="#4c2a9c"/>
</g><text x="494" y="554" font-family="'Inter','Segoe UI',sans-serif" font-size="9.5" font-weight="700" fill="#4c2a9c" text-anchor="start">16-agent operations team</text><text x="444" y="570" font-family="'Inter','Segoe UI',sans-serif" font-size="7.4" fill="#6b7285">agent_events (Postgres bus) → Timer Functions. Findings advise; an operator</text><text x="444" y="582" font-family="'Inter','Segoe UI',sans-serif" font-size="7.4" fill="#6b7285">authorizes every action. No agent issues a device command.</text><path d="M 620 505 L 620 530" fill="none" stroke="#7c5ad4" stroke-width="1.6" marker-end="url(#arrow-7c5ad4)"/><rect x="860" y="530" width="180" height="95" rx="10" fill="#fff" stroke="#d6dae4" stroke-width="1.4"/>
<g transform="translate(874,542) scale(0.9)">
  <path d="M1 9s3.4-6 9-6 9 6 9 6-3.4 6-9 6-9-6-9-6z" fill="#fff" stroke="#3d4356" stroke-width="1.3"/>
  <circle cx="10" cy="9" r="3" fill="#3d4356"/>
</g><text x="902" y="554" font-family="'Inter','Segoe UI',sans-serif" font-size="9.3" font-weight="700" fill="#14161d" text-anchor="start">App Insights / Log</text><text x="874" y="568" font-family="'Inter','Segoe UI',sans-serif" font-size="9.3" font-weight="700" fill="#14161d" text-anchor="start">Analytics + Action Groups</text><text x="874" y="582" font-family="'Inter','Segoe UI',sans-serif" font-size="7.2" fill="#6b7285">Cost kill-switch, alerts, agent</text><text x="874" y="594" font-family="'Inter','Segoe UI',sans-serif" font-size="7.2" fill="#6b7285">report delivery.</text><path d="M 810 577.5 L 835 577.5 L 860 577.5" fill="none" stroke="#6b7285" stroke-width="1.6" marker-end="url(#arrow-6b7285)"/><rect x="1050" y="530" width="170" height="95" rx="10" fill="#fff" stroke="#a9d4b6" stroke-width="1.4"/><g><circle cx="1065" cy="544" r="9" fill="#15683f"/><text x="1065" y="548" font-family="'Inter','Segoe UI',sans-serif" font-size="10" font-weight="800" fill="#fff" text-anchor="middle">H</text></g>
<g transform="translate(1082,540) scale(0.9)">
  <path d="M6 20c-3.3 0-6-2.6-6-5.8 0-2.7 1.9-5 4.5-5.6C5.2 4.7 8.7 2 12.8 2c4.6 0 8.4 3.4 9 7.8 3 .6 5.2 3.2 5.2 6.3 0 3.5-2.9 6.3-6.5 6.3H6z"
    fill="#e3f4ea" stroke="#15683f" stroke-width="1.4"/>
</g><text x="1114" y="554" font-family="'Inter','Segoe UI',sans-serif" font-size="9.3" font-weight="700" fill="#14161d" text-anchor="start">Static Web Hosting</text><text x="1064" y="570" font-family="'Inter','Segoe UI',sans-serif" font-size="7.2" fill="#6b7285">Storage + CDN. Serves each portal’s</text><text x="1064" y="582" font-family="'Inter','Segoe UI',sans-serif" font-size="7.2" fill="#6b7285">own built bundle, from its own code</text><text x="1064" y="594" font-family="'Inter','Segoe UI',sans-serif" font-size="7.2" fill="#6b7285">plus shared packages/ — separate</text><text x="1064" y="606" font-family="'Inter','Segoe UI',sans-serif" font-size="7.2" fill="#6b7285">from the API, which serves only</text><text x="1064" y="618" font-family="'Inter','Segoe UI',sans-serif" font-size="7.2" fill="#6b7285">data.</text><rect x="430" y="705" width="175" height="115" rx="8" fill="#eef7f1" stroke="#a9d4b6" stroke-width="1.4"/>
<g transform="translate(442,715) scale(1.05)">
  <rect x="0.5" y="1" width="19" height="13" rx="1.6" fill="#e3f4ea" stroke="#15683f" stroke-width="1.3"/>
  <path d="M2.5 3.5h15" stroke="#15683f" stroke-width="1" opacity=".5"/>
  <rect x="7" y="14.6" width="6" height="1.6" fill="#15683f"/>
  <rect x="4.5" y="16.4" width="11" height="1.4" rx="0.7" fill="#15683f"/>
</g><text x="472" y="729" font-family="'Inter','Segoe UI',sans-serif" font-size="9.6" font-weight="700" fill="#14161d" text-anchor="start">Customer Portal</text><text x="442" y="745" font-family="'Inter','Segoe UI',sans-serif" font-size="7.4" fill="#6b7285">Their sites, alerts, compliance</text><text x="442" y="757" font-family="'Inter','Segoe UI',sans-serif" font-size="7.4" fill="#6b7285">reports only.</text><rect x="625" y="705" width="175" height="115" rx="8" fill="#eef7f1" stroke="#a9d4b6" stroke-width="1.4"/>
<g transform="translate(637,715) scale(1.05)">
  <rect x="0.5" y="1" width="19" height="13" rx="1.6" fill="#e3f4ea" stroke="#15683f" stroke-width="1.3"/>
  <path d="M2.5 3.5h15" stroke="#15683f" stroke-width="1" opacity=".5"/>
  <rect x="7" y="14.6" width="6" height="1.6" fill="#15683f"/>
  <rect x="4.5" y="16.4" width="11" height="1.4" rx="0.7" fill="#15683f"/>
</g><text x="667" y="729" font-family="'Inter','Segoe UI',sans-serif" font-size="9.6" font-weight="700" fill="#14161d" text-anchor="start">Partner Portal</text><text x="637" y="745" font-family="'Inter','Segoe UI',sans-serif" font-size="7.4" fill="#6b7285">Whole book of business.</text><text x="637" y="757" font-family="'Inter','Segoe UI',sans-serif" font-size="7.4" fill="#6b7285">White-labelled per partner.</text><rect x="820" y="705" width="175" height="115" rx="8" fill="#eef7f1" stroke="#a9d4b6" stroke-width="1.4"/>
<g transform="translate(832,715) scale(1.05)">
  <rect x="0.5" y="1" width="19" height="13" rx="1.6" fill="#e3f4ea" stroke="#15683f" stroke-width="1.3"/>
  <path d="M2.5 3.5h15" stroke="#15683f" stroke-width="1" opacity=".5"/>
  <rect x="7" y="14.6" width="6" height="1.6" fill="#15683f"/>
  <rect x="4.5" y="16.4" width="11" height="1.4" rx="0.7" fill="#15683f"/>
</g><text x="862" y="729" font-family="'Inter','Segoe UI',sans-serif" font-size="9.6" font-weight="700" fill="#14161d" text-anchor="start">Control Center</text><text x="832" y="745" font-family="'Inter','Segoe UI',sans-serif" font-size="7.4" fill="#6b7285">Staff only. Fleet, branding, agents,</text><text x="832" y="757" font-family="'Inter','Segoe UI',sans-serif" font-size="7.4" fill="#6b7285">act-as.</text><rect x="1015" y="705" width="465" height="115" rx="8" fill="#eef7f1" stroke="#a9d4b6" stroke-width="1.4" stroke-dasharray="4 3"/>
<g transform="translate(1027,715) scale(1)">
  <rect x="0.5" y="1" width="19" height="13" rx="1.6" fill="#e3f4ea" stroke="#15683f" stroke-width="1.3"/>
  <path d="M2.5 3.5h15" stroke="#15683f" stroke-width="1" opacity=".5"/>
  <rect x="7" y="14.6" width="6" height="1.6" fill="#15683f"/>
  <rect x="4.5" y="16.4" width="11" height="1.4" rx="0.7" fill="#15683f"/>
</g><text x="1055" y="729" font-family="'Inter','Segoe UI',sans-serif" font-size="9.6" font-weight="700" fill="#14161d" text-anchor="start">PeakView360</text><text x="1027" y="745" font-family="'Inter','Segoe UI',sans-serif" font-size="7.4" fill="#6b7285">Embedded per site. Fails closed if opened for a site it holds no data for.</text><g><circle cx="436" cy="836" r="9" fill="#15683f"/><text x="436" y="840" font-family="'Inter','Segoe UI',sans-serif" font-size="10" font-weight="800" fill="#fff" text-anchor="middle">I</text></g><text x="452" y="840" font-family="'Inter','Segoe UI',sans-serif" font-size="9.3" font-weight="800" fill="#15683f" text-anchor="start">BROWSER — three portals, not one app with role menus</text><path d="M 730 335 L 730 337 L 1240 337 L 1240 635" fill="none" stroke="#0d5fb8" stroke-width="1.3" stroke-dasharray="2 3" marker-start="url(#arrow-0d5fb8)"/><g>
    <rect x="1184.2" y="475" width="111.60000000000001" height="13" fill="#fff" opacity=".92"/>
    <text x="1240" y="485" font-family="'SF Mono','Cascadia Mono',Consolas,monospace" font-size="8.6" fill="#0d5fb8" text-anchor="middle" font-weight="600">API access (2-way)</text>
  </g><path d="M 1240 635 L 517.5 635 L 517.5 705" fill="none" stroke="#0d5fb8" stroke-width="1.1" stroke-dasharray="2 3" marker-end="url(#arrow-0d5fb8)"/><path d="M 1240 635 L 712.5 635 L 712.5 705" fill="none" stroke="#0d5fb8" stroke-width="1.1" stroke-dasharray="2 3" marker-end="url(#arrow-0d5fb8)"/><path d="M 1240 635 L 907.5 635 L 907.5 705" fill="none" stroke="#0d5fb8" stroke-width="1.1" stroke-dasharray="2 3" marker-end="url(#arrow-0d5fb8)"/><path d="M 1240 635 L 1247.5 635 L 1247.5 705" fill="none" stroke="#0d5fb8" stroke-width="1.1" stroke-dasharray="2 3" marker-end="url(#arrow-0d5fb8)"/><path d="M 1135 625 L 1135 645" fill="none" stroke="#15683f" stroke-width="1.3" stroke-dasharray="2 3" marker-start="url(#arrow-15683f)"/><path d="M 1135 645 L 517.5 645 L 517.5 705" fill="none" stroke="#15683f" stroke-width="1.1" stroke-dasharray="2 3" marker-end="url(#arrow-15683f)"/><path d="M 1135 645 L 712.5 645 L 712.5 705" fill="none" stroke="#15683f" stroke-width="1.1" stroke-dasharray="2 3" marker-end="url(#arrow-15683f)"/><path d="M 1135 645 L 907.5 645 L 907.5 705" fill="none" stroke="#15683f" stroke-width="1.1" stroke-dasharray="2 3" marker-end="url(#arrow-15683f)"/><path d="M 1135 645 L 1247.5 645 L 1247.5 705" fill="none" stroke="#15683f" stroke-width="1.1" stroke-dasharray="2 3" marker-end="url(#arrow-15683f)"/><path d="M 1247.5 820 L 1247.5 870 L 210 870 L 210 830" fill="none" stroke="#7c5ad4" stroke-width="1.3" stroke-dasharray="5 4" marker-end="url(#arrow-7c5ad4)" marker-start="url(#arrow-7c5ad4)"/><g>
    <rect x="1061.7" y="852" width="111.60000000000001" height="13" fill="#fff" opacity=".92"/>
    <text x="1117.5" y="862" font-family="'SF Mono','Cascadia Mono',Consolas,monospace" font-size="8.6" fill="#7c5ad4" text-anchor="middle" font-weight="600">direct LAN (2-way)</text>
  </g><line x1="376" y1="171" x2="376" y2="199" stroke="#a52020" stroke-width="3"/><rect x="1520" y="70" width="340" height="555" rx="12" fill="#fbfaf7" stroke="#e3c78a" stroke-width="1.4" stroke-dasharray="6 4"/><g><circle cx="1537" cy="88" r="9" fill="#8a5205"/><text x="1537" y="92" font-family="'Inter','Segoe UI',sans-serif" font-size="10" font-weight="800" fill="#fff" text-anchor="middle">J</text></g><text x="1553" y="92" font-family="'Inter','Segoe UI',sans-serif" font-size="9.3" font-weight="800" fill="#8a5205" text-anchor="start">EXTERNAL — customer/partner-owned</text><text x="1536" y="106" font-family="'Inter','Segoe UI',sans-serif" font-size="7.6" font-weight="700" fill="#6b7285" text-anchor="start">Not part of the Azure tenant boundary</text><rect x="1540" y="240" width="300" height="95" rx="8" fill="#fff" stroke="#e3c78a" stroke-width="1.4"/>
<g transform="translate(1552,250) scale(0.85)">
  <rect x="1" y="1" width="16" height="16" rx="3" fill="#fdf3e2" stroke="#8a5205" stroke-width="1.4"/>
  <path d="M6 5.5 L11.5 9 L6 12.5" fill="none" stroke="#8a5205" stroke-width="1.5" stroke-linecap="round" stroke-linejoin="round"/>
</g><text x="1584" y="262" font-family="'Inter','Segoe UI',sans-serif" font-size="9.6" font-weight="700" fill="#14161d" text-anchor="start">Partner CMMS (existing)</text><text x="1552" y="278" font-family="'Inter','Segoe UI',sans-serif" font-size="7.4" fill="#6b7285">Work-order dispatch — advanceWorkOrderStage() pushes status</text><text x="1552" y="290" font-family="'Inter','Segoe UI',sans-serif" font-size="7.4" fill="#6b7285">through to the partner’s own system. Outbound only; no CMMS</text><text x="1552" y="302" font-family="'Inter','Segoe UI',sans-serif" font-size="7.4" fill="#6b7285">reaches back into PeakLogic.</text><line x1="810" y1="287" x2="1540" y2="287" stroke="#8a5205" stroke-width="1.3" stroke-dasharray="3 3" marker-end="url(#arrow-8a5205)"/><g>
    <rect x="1076.1" y="265" width="117.8" height="13" fill="#fff" opacity=".92"/>
    <text x="1135" y="275" font-family="'SF Mono','Cascadia Mono',Consolas,monospace" font-size="8.6" fill="#8a5205" text-anchor="middle" font-weight="600">EXPORT · work order</text>
  </g><rect x="1540" y="375" width="300" height="95" rx="8" fill="#fff" stroke="#e3c78a" stroke-width="1.4"/>
<g transform="translate(1554,385) scale(1.3)">
  <path d="M0 3.5C0 1.6 3.6 0 8 0s8 1.6 8 3.5v13C16 18.4 12.4 20 8 20S0 18.4 0 16.5v-13z" fill="#fdf3e2" stroke="#14161d" stroke-width="1.3"/>
  <ellipse cx="8" cy="3.5" rx="8" ry="3.5" fill="#fdf3e2" stroke="#14161d" stroke-width="1.3"/>
</g><text x="1600" y="401" font-family="'Inter','Segoe UI',sans-serif" font-size="9.6" font-weight="700" fill="#14161d" text-anchor="start">Customer SCADA / Historian</text><text x="1552" y="415" font-family="'Inter','Segoe UI',sans-serif" font-size="7.4" font-weight="500" fill="#6b7285" text-anchor="start">(optional — only where one already exists)</text><text x="1552" y="429" font-family="'Inter','Segoe UI',sans-serif" font-size="7.4" fill="#6b7285">Normalized telemetry fed upward for plants that already run SCADA</text><text x="1552" y="441" font-family="'Inter','Segoe UI',sans-serif" font-size="7.4" fill="#6b7285">— PeakLogic instruments what it cannot economically reach, not</text><text x="1552" y="453" font-family="'Inter','Segoe UI',sans-serif" font-size="7.4" fill="#6b7285">what it replaces.</text><path d="M 590 260 L 610 260 L 610 205 L 1505 205 L 1505 422 L 1540 422" fill="none" stroke="#8a5205" stroke-width="1.3" stroke-dasharray="3 3" marker-end="url(#arrow-8a5205)"/><g>
    <rect x="1017.6" y="187" width="179.8" height="13" fill="#fff" opacity=".92"/>
    <text x="1107.5" y="197" font-family="'SF Mono','Cascadia Mono',Consolas,monospace" font-size="8.6" fill="#8a5205" text-anchor="middle" font-weight="600">EXPORT · normalized telemetry</text>
  </g></svg>